<svg width="94" height="140" viewBox="0 0 94 140" fill="none" xmlns="http://www.w3.org/2000/svg">
<path d="M90.8665 7.83801C78.093 4.87037 70.3286 11.4375 66.5089 16.3163C64.885 15.5321 63.1716 15.0707 61.4333 14.9519H61.4195C56.9906 6.25215 49.4974 0.727576 41.2635 0.0945431C34.5767 -0.417553 29.4596 1.15216 26.0476 4.76789C25.2458 5.57639 24.6598 6.66976 24.3674 7.90382C24.0749 9.13791 24.0896 10.4539 24.4098 11.6763C25.0649 14.0557 26.6805 15.8226 28.6542 16.3163C27.1742 18.0959 25.326 19.3253 23.3183 19.8641C12.783 23.6851 13.2472 32.8623 13.9707 36.649V36.6501C10.9885 37.3041 8.19753 38.9361 5.88436 41.3778C3.57119 43.8206 1.81712 46.9865 0.80214 50.5526C-0.535758 55.7014 -0.146371 61.3077 1.87983 66.0918C2.34117 67.056 2.94921 67.8968 3.66983 68.568C3.46868 68.8218 3.26846 69.0755 3.07839 69.3477C2.86894 69.6406 2.67426 69.9497 2.49619 70.2738C0.505958 73.5907 -0.346557 77.7613 0.12869 81.8639L10.4091 139.649L73.0345 139.65L83.3149 81.865V81.8639C83.7901 77.7613 82.9376 73.5907 80.9474 70.2738C80.7694 69.9497 80.5747 69.6406 80.3652 69.3477C79.7258 68.4331 79.0043 67.6119 78.2163 66.9014C80.859 60.6446 80.7619 53.1338 77.9579 46.9865C77.3416 45.651 76.609 44.4042 75.7749 43.2681C77.1026 39.2809 77.3859 34.8706 76.5841 30.6688C75.7823 26.4673 73.9369 22.6909 71.3129 19.8816C74.4648 16.3674 80.3192 12.3421 89.8173 14.5253C91.2281 14.8701 92.6121 13.7894 92.9829 12.0525C93.0411 11.7676 93.0734 11.4758 93.0789 11.1817C93.0863 9.54511 92.1553 8.13702 90.8672 7.83822L90.8665 7.83801ZM15.0112 133.033L5.36546 80.9351V80.9362C5.09049 78.5222 5.60074 76.0704 6.78362 74.1314C7.96557 72.1915 9.72061 70.9252 11.6554 70.6149C13.5902 70.3058 15.5436 70.9782 17.0789 72.4833C18.6133 73.9873 19.6025 76.1982 19.8229 78.6214L24.727 133.037L15.0112 133.033ZM39.0287 133.033H30.0509L25.2918 80.194C25.0593 77.735 25.6877 75.2702 27.0163 73.4331C28.225 71.8 29.8867 70.8035 31.663 70.6512C33.4391 70.4979 35.195 71.1979 36.5716 72.6096C37.9482 74.0213 38.8414 76.0361 39.0683 78.2437C39.0517 78.569 39.0286 133.035 39.0286 133.035L39.0287 133.033ZM53.3947 133.033H44.4383C44.4383 133.033 44.4152 78.5671 44.3986 78.2423V78.2435C44.6256 76.0359 45.5187 74.021 46.8953 72.6093C48.2719 71.1977 50.0279 70.4976 51.8039 70.6509C53.5791 70.8032 55.2419 71.7997 56.4506 73.4328C57.6777 75.1352 58.3088 77.3807 58.1999 79.6678L53.3947 133.033ZM78.076 80.938L68.4302 133.036L58.7384 133.04L63.6185 78.6237C63.839 76.2005 64.8272 73.9896 66.3625 72.4844C67.8978 70.9793 69.8512 70.3069 71.786 70.616C73.7209 70.9262 75.4758 72.1926 76.6578 74.1325C77.8406 76.0724 78.3509 78.5233 78.0759 80.9385L78.076 80.938ZM72.6626 49.307C72.8536 49.6657 73.0446 50.0232 73.2226 50.3992H73.2217C74.1269 52.3403 74.6039 54.5479 74.6039 56.7957C74.6039 59.0424 74.1269 61.25 73.2217 63.1922C73.087 63.499 72.9754 63.8207 72.8896 64.1529C70.6724 63.7204 68.4035 64.0249 66.31 65.0364C64.2174 66.049 62.3739 67.7318 60.9668 69.9161C60.7814 69.6139 60.5987 69.3106 60.3947 69.0246C57.9774 65.7203 54.5312 63.8909 50.9493 64.0111C47.3684 64.131 44.0053 66.1898 41.7325 69.6511C39.4609 66.1898 36.0978 64.1313 32.5158 64.0111C28.9349 63.8911 25.4886 65.7204 23.0713 69.0246C22.8628 69.3164 22.6754 69.6266 22.4872 69.9346L22.4817 69.9253L22.4808 69.9265C20.7581 67.2461 18.3878 65.3338 15.7241 64.4757C13.0604 63.6165 10.2453 63.8575 7.70037 65.162C7.38112 64.4365 7.07941 63.7514 7.03696 63.6522C5.48962 60.431 5.07995 56.5533 5.90391 52.94C7.33406 47.9714 10.7693 44.3267 14.9242 43.3707C15.1558 43.3199 18.6498 44.0188 21.5427 44.0188C25.5112 43.9969 29.44 43.0246 33.1149 41.1528C34.4832 40.4262 35.1328 38.462 34.5746 36.7401C34.0154 35.017 32.4552 34.1728 31.0683 34.8417C27.3804 36.7528 23.377 37.5198 19.4002 37.0769C19.4279 36.4529 19.3864 35.8267 19.2775 35.2165C18.7589 32.4877 18.7728 28.6149 24.8321 26.4143C32.4599 23.6682 34.8071 18.4654 34.4934 14.8659V14.867C34.3809 13.4726 33.8605 12.1797 33.0337 11.2339C32.1535 10.2824 31.0435 9.72874 29.8809 9.66417C32.1876 7.48089 35.9946 6.52587 40.9346 6.90073C46.5509 7.24905 51.7807 10.5823 55.3045 16.0605C50.5352 18.1169 46.7909 22.8078 45.1559 28.7729C43.5199 34.738 44.176 41.3134 46.9329 46.5932C49.6899 51.8744 54.2407 55.2723 59.2674 55.8017C64.2951 56.3322 69.237 53.9356 72.6629 49.3072L72.6626 49.307ZM71.571 35.4045C71.5692 36.5602 71.4548 37.7123 71.2297 38.8333C70.3273 43.1503 67.7936 46.645 64.4451 48.1915C61.0957 49.737 57.3542 49.1407 54.4229 46.5918C51.4915 44.0441 49.7422 39.8667 49.7365 35.4042C49.7411 32.2682 50.6075 29.2292 52.19 26.7956C53.7715 24.3609 55.974 22.6795 58.4291 22.0311C59.1618 21.8534 59.9064 21.7612 60.6537 21.7577C62.0285 21.7543 63.3914 22.0841 64.6655 22.73C66.6991 23.7346 68.4457 25.4807 69.6766 27.7402C70.9074 29.9996 71.5681 32.6696 71.5709 35.4043L71.571 35.4045Z" fill="#FF7A00"/>
</svg>
