<svg xmlns="http://www.w3.org/2000/svg" viewBox="0 0 512 456.549">

<path fill="none"  d="M463.044 117.283c-10.125-26.729-28.412-47.537-50.269-60.578-13.478-8.048-28.343-13.125-43.461-14.808-14.879-1.655-30.018.007-44.284 5.407-37.461 14.189-50.601 41.912-66.522 74.028-3.422 6.887-1.964 6.964-5.893.078-17.576-30.87-33.786-63.684-70.127-75.725-12.879-4.26-26.554-5.408-40.088-3.845-13.83 1.606-27.546 6.028-40.207 12.83-25.068 13.485-45.883 36.215-55.382 64.916-31.525 95.237 83.379 188.376 170.42 258.918 12.97 10.506 25.363 20.547 36.834 30.251 15.449-13.288 32.356-26.695 49.995-40.687 87.815-69.634 195.291-154.872 158.984-250.785z"/>


<path fill="currentColor" stroke="black" stroke-width="16" d="M463.044 117.283c-10.125-26.729-28.412-47.537-50.269-60.578-13.478-8.048-28.343-13.125-43.461-14.808-14.879-1.655-30.018.007-44.284 5.407-37.461 14.189-50.601 41.912-66.522 74.028-3.422 6.887-1.964 6.964-5.893.078-17.576-30.87-33.786-63.684-70.127-75.725-12.879-4.26-26.554-5.408-40.088-3.845-13.83 1.606-27.546 6.028-40.207 12.83-25.068 13.485-45.883 36.215-55.382 64.916-31.525 95.237 83.379 188.376 170.42 258.918 12.97 10.506 25.363 20.547 36.834 30.251 15.449-13.288 32.356-26.695 49.995-40.687 87.815-69.634 195.291-154.872 158.984-250.785z"/>
        </svg>
