<svg width="121" height="157" viewBox="0 0 121 157" fill="none" xmlns="http://www.w3.org/2000/svg">
<path d="M119.484 75.4086C118.659 74.145 117.271 73.394 115.77 73.394L92.7749 73.3925C89.9274 69.1147 90.37 63.2613 94.1154 59.4833C100.287 53.2657 100.287 43.1457 94.1154 36.9295V36.9252C92.6447 35.4456 91.6726 33.6074 91.2188 31.6194H105.241C106.595 31.6194 107.695 30.5126 107.695 29.1459C107.695 27.7807 106.597 26.6724 105.241 26.6724H91.2188C91.6054 24.9838 92.401 23.4294 93.5257 22.0866H105.241C106.595 22.0866 107.695 20.9797 107.695 19.613C107.695 18.2478 106.597 17.1395 105.241 17.1395H97.1046C98.1705 14.9695 98.749 12.5721 98.749 10.0833C98.749 6.84739 97.7966 3.75685 96.0275 1.13649C95.1423 -0.175095 93.3186 -0.399578 92.208 0.722838C91.3606 1.577 91.2794 2.90413 91.9587 3.90229C93.1829 5.71225 93.844 7.84692 93.844 10.082C93.844 12.7024 92.8929 15.1561 91.2331 17.1382H83.7254C84.7913 14.9682 85.3698 12.5708 85.3698 10.082C85.3698 6.84609 84.4173 3.75555 82.6483 1.13519C81.763 -0.176396 79.9394 -0.40088 78.8288 0.721537C77.9813 1.5757 77.9001 2.90283 78.5794 3.90099C79.8036 5.71095 80.4647 7.84562 80.4647 10.0807C80.4647 13.0173 79.3274 15.779 77.2628 17.8597L77.26 17.8625C71.0915 24.0831 71.0915 34.2031 77.2628 40.4193V40.4235C79.326 42.5032 80.4647 45.2649 80.4647 48.2026C80.4647 51.1392 79.3274 53.9008 77.2628 55.9816L77.26 55.9844C72.6014 60.683 71.4684 67.6025 73.8466 73.3879H66.0043C63.1567 69.1101 63.5993 63.2567 67.3447 59.4787C73.5132 53.2611 73.5132 43.1425 67.3447 36.9248V36.9206C65.2815 34.841 64.1456 32.0793 64.1456 29.1416C64.1456 26.2021 65.2815 23.4408 67.3475 21.3582L67.3433 21.3554C70.3309 18.3397 71.9796 14.3372 71.9796 10.0821C71.9796 6.84616 71.0272 3.75562 69.2581 1.13527C68.3729 -0.176322 66.5493 -0.400803 65.4387 0.721614C64.5912 1.57578 64.51 2.90291 65.1893 3.90106C66.4135 5.71103 67.0746 7.84569 67.0746 10.0808C67.0746 13.0174 65.9373 15.7791 63.8727 17.8598L63.8755 17.8626C61.4748 20.2853 59.9577 23.3506 59.4464 26.6695H51.0648C51.5172 24.6789 52.4921 22.842 53.9628 21.3598L53.96 21.357C56.9476 18.3441 58.5963 14.3388 58.5963 10.0837C58.5963 6.84775 57.6439 3.75721 55.8748 1.13686C54.9896 -0.174731 53.1659 -0.399214 52.0553 0.723202C51.2079 1.57737 51.1267 2.9045 51.806 3.90266C53.0302 5.71262 53.6913 7.84729 53.6913 10.0824C53.6913 12.7027 52.7403 15.1565 51.0805 17.1385H2.46536C1.11093 17.1385 0.0113695 18.2454 0.0113695 19.6121C0.0113695 20.9773 1.10949 22.0856 2.46536 22.0856H47.5055C46.7982 23.5271 46.3135 25.0674 46.067 26.6714L2.45399 26.6757C1.09956 26.6757 0 27.7825 0 29.1492C0 30.5144 1.09812 31.6227 2.45399 31.6227H46.0527C46.5639 34.942 48.0837 38.007 50.4828 40.4297C54.7394 44.7202 54.7394 51.7019 50.4828 55.9924C45.8214 60.691 44.6883 67.6105 47.0694 73.3959H21.4118C19.9103 73.3959 18.5209 74.1498 17.6945 75.4134C16.8695 76.677 16.7309 78.2611 17.3219 79.6476L22.1849 91.0763L36.4578 152.36C37.0531 154.924 39.2942 156.711 41.9063 156.711H95.3729C97.9837 156.711 100.223 154.924 100.819 152.36L115.209 90.5631L119.857 79.6469C120.452 78.2548 120.309 76.6721 119.484 75.4084L119.484 75.4086ZM92.0926 78.3382H115.075L111.255 87.3132H88.2731L92.0926 78.3382ZM80.7291 59.4832C83.7181 56.4675 85.3683 52.4621 85.3683 48.2055C85.3683 43.9461 83.7197 39.9407 80.728 36.925C76.697 32.8589 76.5331 26.4042 80.1439 22.0851H87.6542C86.5883 24.2551 86.007 26.6525 86.007 29.1441C86.007 33.4036 87.6556 37.4089 90.6473 40.4247C94.9025 44.7152 94.9025 51.6969 90.6473 55.9874C85.4577 61.2184 84.6495 69.1995 88.1905 75.3054C88.0098 75.5624 87.8249 75.8137 87.7002 76.1088L84.5501 83.5123L81.3972 76.1073C81.2011 75.6457 80.9224 75.2461 80.5988 74.8861C76.4935 70.5844 76.5244 63.7256 80.7291 59.4831L80.7291 59.4832ZM53.9538 59.4832C60.1223 53.2655 60.1223 43.1455 53.9538 36.9293V36.9251C52.4831 35.4455 51.5111 33.6073 51.0559 31.6193L59.4403 31.6207C59.9516 34.9399 61.4713 38.005 63.8734 40.4276C68.1285 44.7182 68.1285 51.6999 63.8734 55.9904H63.8706C59.212 60.689 58.076 67.6085 60.4571 73.3939L52.6134 73.3925C49.7686 69.1161 50.2099 63.2598 53.9538 59.4833V59.4832ZM77.0032 78.3382L80.8255 87.3132H25.9247L22.1052 78.3382H77.0032ZM82.0945 151.762H41.9058C41.5851 151.762 41.3077 151.542 41.2363 151.229L27.5041 92.258H82.093L82.0945 151.762ZM96.0397 151.23C95.9683 151.545 95.6938 151.764 95.373 151.764H87.0011V92.2582H109.773L96.0397 151.23Z" fill="#FF7A00"/>
</svg>
